<svg width="16" height="16" viewBox="0 0 16 16" fill="none" xmlns="http://www.w3.org/2000/svg">
<g id="CheckCircle">
<path id="Vector" d="M7.08148 10.5625C7.2273 10.5632 7.36785 10.5079 7.47408 10.408L7.47443 10.4077L11.1369 6.90769L11.137 6.90772L11.1386 6.90603C11.2397 6.80187 11.2966 6.66267 11.2975 6.51753C11.2983 6.37239 11.243 6.23253 11.1431 6.12721C11.0433 6.02189 10.9065 5.95925 10.7615 5.95239C10.6166 5.94553 10.4745 5.99498 10.3652 6.0904L10.3651 6.09036L10.3631 6.09226L7.08127 9.2199L5.63773 7.84308C5.5851 7.78908 5.52213 7.74622 5.45259 7.71704C5.38266 7.6877 5.30753 7.67281 5.23169 7.67325C5.15586 7.67369 5.08091 7.68946 5.01132 7.7196C4.94174 7.74975 4.87898 7.79366 4.8268 7.84869C4.77462 7.90371 4.7341 7.96872 4.70769 8.0398C4.68128 8.11088 4.66951 8.18657 4.67309 8.26232C4.67667 8.33807 4.69554 8.41231 4.72854 8.48058C4.76134 8.54841 4.80743 8.60896 4.86407 8.65863L6.69376 10.4071C6.69385 10.4072 6.69394 10.4073 6.69403 10.4074C6.74525 10.4575 6.80587 10.497 6.87241 10.5237C6.93887 10.5502 7.00992 10.5634 7.08148 10.5625ZM7.08148 10.5625C7.0817 10.5625 7.08193 10.5625 7.08215 10.5625L7.08125 10.5L7.08087 10.5625C7.08107 10.5625 7.08128 10.5625 7.08148 10.5625ZM4.42352 2.64741C5.48214 1.94006 6.72675 1.56251 7.99994 1.5625C9.70628 1.56579 11.3418 2.24508 12.5484 3.45165C13.7549 4.65823 14.4342 6.29376 14.4375 8.00012C14.4375 9.2733 14.0599 10.5179 13.3526 11.5765C12.6452 12.6351 11.6398 13.4602 10.4635 13.9475C9.28723 14.4347 7.99286 14.5622 6.74411 14.3138C5.49536 14.0654 4.3483 13.4523 3.448 12.552C2.5477 11.6517 1.93459 10.5046 1.6862 9.25589C1.43781 8.00714 1.56529 6.71277 2.05253 5.53648C2.53977 4.36018 3.36488 3.35478 4.42352 2.64741Z" fill="#1434CB" stroke="#1434CB" stroke-width="0.125"/>
</g>
</svg>
