<svg width="239" height="179" viewBox="0 0 239 179" fill="none" xmlns="http://www.w3.org/2000/svg">
<g id="Group">
<path id="Vector" d="M49.422 143.114C50.0833 141.553 50.7062 139.545 50.7062 137.5C50.7062 134.731 49.4437 132.614 48.2226 130.567C46.8779 128.313 45.488 125.982 45.488 122.462C45.488 121.797 45.5396 121.144 45.617 120.5H59.838V124.423H57.2289C54.3516 124.423 52.0107 126.769 52.0107 129.654C52.0107 132.539 54.3516 134.885 57.2289 134.885V132.269C55.79 132.269 54.6198 131.096 54.6198 129.654C54.6198 128.212 55.79 127.038 57.2289 127.038H62.4471V120.5H77.9726C78.05 121.144 78.1016 121.797 78.1016 122.462V126.078L81.7828 132.536C81.9872 132.895 82.0121 133.319 81.8503 133.698C81.6885 134.079 81.3668 134.353 80.9674 134.454L78.3303 135.113L76.0257 144.355C75.8805 144.939 75.3594 145.346 74.76 145.346H69.7763C68.7813 145.346 67.887 145.9 67.4423 146.792L64.5206 152.649C65.344 152.957 66.1753 153.241 67.0167 153.494L69.7762 147.962H74.76C76.5588 147.962 78.1201 146.739 78.5571 144.99L80.482 137.271L81.5999 136.99C82.7988 136.69 83.7644 135.864 84.2498 134.725C84.7352 133.585 84.6613 132.314 84.0479 131.239L80.7107 125.383V122.462C80.7107 121.799 80.6754 121.145 80.609 120.5H91.1471V117.885H80.1302C78.0793 109.637 70.648 103.5 61.7948 103.5C51.3648 103.5 42.8789 112.006 42.8789 122.462C42.8789 126.704 44.5281 129.47 45.9829 131.909C47.1174 133.811 48.0971 135.453 48.0971 137.5C48.0971 138.735 47.7951 139.986 47.4074 141.091C48.0589 141.787 48.7329 142.459 49.422 143.114ZM61.7948 106.115C69.2006 106.115 75.4581 111.094 77.4389 117.885H46.1507C48.1316 111.094 54.3891 106.115 61.7948 106.115Z" fill="#1434CB"/>
<path id="Vector_2" d="M29.1816 75.3846H31.7907V69.8559L29.1816 68.1123V75.3846Z" fill="#FCC015"/>
<path id="Vector_3" d="M170.724 87.3254V105.461H89.1901C83.8865 105.461 79.406 101.268 79.406 96.3069V75.3838H76.7969V96.3069C76.7969 102.687 82.4724 108.076 89.1901 108.076H173.333V92.2114L188.503 102.349C189.19 101.743 189.901 101.164 190.662 100.649L170.724 87.3254Z" fill="#FCC015"/>
<path id="Vector_4" d="M131.588 157.769V160.384H151.826L149.34 157.769H131.588Z" fill="#FCC015"/>
<path id="Vector_5" d="M78.1021 157.769C52.9985 157.769 31.7907 135.312 31.7907 108.73V106.769H29.1816V108.73C29.1816 136.729 51.5844 160.384 78.1021 160.384H97.6703V157.769H78.1021Z" fill="#FCC015"/>
<path id="Vector_6" d="M162.245 17.8457H123.627L128.265 20.4611H162.245C181.274 20.4611 198.055 33.3693 205.066 51.1919H207.851C200.681 31.9158 182.692 17.8457 162.245 17.8457Z" fill="#1434CB"/>
<path id="Vector_7" d="M84.5898 17.8457C85.1668 18.6097 85.5982 19.4889 85.7959 20.4611H98.3821L103.02 17.8457H84.5898Z" fill="#1434CB"/>
<path id="Vector_8" d="M68.9692 0.364258L45.7695 15.8679C46.3064 16.5525 46.795 17.2758 47.2235 18.0389L66.3601 5.25022V9.99954H68.9692V0.364258Z" fill="#1434CB"/>
<path id="Vector_9" d="M0.738281 45.961L2.36642 47.0491L13.4552 54.4594L66.9414 90.2029L68.9696 91.5579V72.7687H150.504C155.807 72.7687 160.288 76.9613 160.288 81.9226V102.846H162.897V81.9226C162.897 75.5425 157.221 70.1534 150.504 70.1534H66.3605V86.6716L14.9024 52.2834L5.44177 45.961L19.1148 36.8235C18.5779 36.1388 18.0893 35.4155 17.6607 34.6523L0.738281 45.961Z" fill="#1434CB"/>
<path id="Vector_10" d="M128.979 153.192C128.979 152.474 128.772 151.81 128.435 151.23C127.756 150.063 126.508 149.269 125.066 149.269H104.193C102.751 149.269 101.502 150.063 100.824 151.23C100.487 151.81 100.279 152.474 100.279 153.192V166.269C100.279 168.432 102.035 170.192 104.193 170.192H125.066C127.224 170.192 128.979 168.432 128.979 166.269V153.192ZM125.066 167.576H104.193C103.474 167.576 102.888 166.99 102.888 166.269V153.192C102.888 152.47 103.474 151.884 104.193 151.884H125.066C125.785 151.884 126.37 152.47 126.37 153.192V166.269C126.37 166.99 125.785 167.576 125.066 167.576Z" fill="#1434CB"/>
<path id="Vector_11" d="M123.76 154.5H105.496V157.115H123.76V154.5Z" fill="#FCC015"/>
<path id="Vector_12" d="M29.1814 78V80.6154H26.5723V101.538H29.1814V104.154H31.7904V101.538H34.3995V104.154H37.0086V101.538C40.2458 101.538 42.8791 98.8988 42.8791 95.6538C42.8791 93.4765 41.6799 91.5935 39.9219 90.5757C40.9403 89.517 41.5745 88.0837 41.5745 86.5C41.5745 83.7058 39.6177 81.3712 37.0086 80.7734V78H34.3995V80.6154H31.7904V78H29.1814ZM38.9654 86.5C38.9654 88.3032 37.5023 89.7692 35.7041 89.7692H29.1814V83.2308H35.7041C37.5023 83.2308 38.9654 84.6968 38.9654 86.5ZM37.0086 98.9231H29.1814V92.3846H35.7041H37.0086C38.8068 92.3846 40.27 93.8507 40.27 95.6538C40.27 97.457 38.8068 98.9231 37.0086 98.9231Z" fill="#1434CB"/>
<path id="Vector_13" d="M153.247 134.884H144.585C139.189 134.884 134.801 130.485 134.801 125.076C134.801 119.668 139.189 115.269 144.585 115.269H161.544C166.939 115.269 171.328 119.668 171.328 125.076C171.328 128.343 169.721 131.233 167.264 133.016L167.618 135.893C171.384 133.759 173.937 129.714 173.937 125.076C173.937 118.226 168.377 112.653 161.544 112.653H144.585C137.751 112.653 132.191 118.226 132.191 125.076C132.191 131.926 137.751 137.499 144.585 137.499H153.061L153.247 134.884Z" fill="#1434CB"/>
<path id="Vector_14" d="M151.491 119.575L144.586 126.497L141.595 123.498L139.75 125.347L144.586 130.195L153.336 121.424L151.491 119.575Z" fill="#FCC015"/>
<path id="Vector_15" d="M100.932 125.731V138.808H117.891V125.731H113.325V124.423C113.325 122.26 111.569 120.5 109.411 120.5C107.253 120.5 105.498 122.26 105.498 124.423V125.731H100.932ZM115.282 128.346V136.192H103.541V128.346H105.498V130.962H108.107V128.346H110.716V130.962H113.325V128.346H115.282ZM108.107 124.423C108.107 123.702 108.692 123.115 109.411 123.115C110.13 123.115 110.716 123.702 110.716 124.423V125.731H108.107V124.423Z" fill="#1434CB"/>
<path id="Vector_16" d="M106.261 144.038L108.87 146.653H111.255L113.864 144.038H119.195C121.353 144.038 123.108 142.278 123.108 140.115V119.192C123.108 117.028 121.353 115.269 119.195 115.269H99.6265C97.4684 115.269 95.7129 117.028 95.7129 119.192V140.115C95.7129 142.278 97.4684 144.038 99.6265 144.038H106.261ZM98.322 119.192C98.322 118.47 98.9074 117.884 99.6265 117.884H119.195C119.914 117.884 120.499 118.47 120.499 119.192V140.115C120.499 140.33 120.435 140.524 120.343 140.703C120.127 141.125 119.7 141.422 119.195 141.422H112.784L110.175 144.038H109.951L107.342 141.422H99.6265C99.1214 141.422 98.6947 141.125 98.478 140.703C98.3862 140.524 98.322 140.33 98.322 140.115V119.192Z" fill="#FCC015"/>
<path id="Vector_17" d="M79.4055 17.846H75.4919V16.5383C75.4919 14.375 73.7363 12.6152 71.5782 12.6152H66.3601C64.2019 12.6152 62.4464 14.375 62.4464 16.5383V17.846H58.5328C56.3747 17.846 54.6191 19.6058 54.6191 21.7691V25.6922C54.6191 27.8555 56.3747 29.6152 58.5328 29.6152H67.6646V32.2306H70.2737V29.6152H78.101H79.4055C81.5636 29.6152 83.3191 27.8555 83.3191 25.6922V21.7691C83.3191 19.6058 81.5636 17.846 79.4055 17.846ZM66.3601 15.2306H71.5782C72.2974 15.2306 72.8828 15.8168 72.8828 16.5383V17.846H65.0555V16.5383C65.0555 15.8168 65.6409 15.2306 66.3601 15.2306ZM80.7101 21.7691V25.6922C80.7101 26.4137 80.1247 26.9999 79.4055 26.9999H70.2737V24.3845H67.6646V26.9999H58.5328C57.8136 26.9999 57.2282 26.4137 57.2282 25.6922V21.7691C57.2282 21.0475 57.8136 20.4614 58.5328 20.4614H66.3601H79.4055C80.1247 20.4614 80.7101 21.0475 80.7101 21.7691Z" fill="#FCC015"/>
<path id="Vector_18" d="M83.3191 30.8887C82.557 31.4672 81.6799 31.8995 80.7101 32.0977V34.8453C80.7101 35.5668 80.1247 36.153 79.4055 36.153H58.5328C57.8136 36.153 57.2282 35.5668 57.2282 34.8453V32.0977C56.2583 31.8995 55.3813 31.4672 54.6191 30.8887V34.8453C54.6191 37.0086 56.3747 38.7683 58.5328 38.7683H79.4055C81.5636 38.7683 83.3191 37.0086 83.3191 34.8453V30.8887Z" fill="#1434CB"/>
<path id="Vector_19" d="M113.324 15.0371L91.1465 27.5419V30.9222H93.7556V29.0718L113.324 18.0382L132.892 29.0718V30.9222H135.501V27.5419L113.324 15.0371Z" fill="#FCC015"/>
<path id="Vector_20" d="M139.414 62.3076H87.2324V64.923H139.414V62.3076Z" fill="#FCC015"/>
<path id="Vector_21" d="M117.89 26.3455C117.89 23.822 115.841 21.7686 113.324 21.7686C110.806 21.7686 108.758 23.822 108.758 26.3455C108.758 28.8689 110.806 30.9224 113.324 30.9224C115.841 30.9224 117.89 28.8689 117.89 26.3455ZM113.324 28.307C112.245 28.307 111.367 27.4271 111.367 26.3455C111.367 25.2638 112.245 24.3839 113.324 24.3839C114.403 24.3839 115.281 25.2638 115.281 26.3455C115.281 27.4271 114.403 28.307 113.324 28.307Z" fill="#1434CB"/>
<path id="Vector_22" d="M91.1465 38.7686V41.3839H93.7556V57.0762H91.1465V59.6916H135.501V57.0762H132.892V41.3839H135.501V38.7686H91.1465ZM96.3647 57.0762V41.3839H98.9738V57.0762H96.3647ZM101.583 57.0762V41.3839H112.019V42.9327C110.504 43.4741 109.41 44.9121 109.41 46.6147C109.41 48.778 111.166 50.5378 113.324 50.5378C114.043 50.5378 114.628 51.1239 114.628 51.8455C114.628 52.567 114.043 53.1532 113.324 53.1532C112.605 53.1532 112.019 52.567 112.019 51.8455H109.41C109.41 53.5481 110.504 54.986 112.019 55.5275V57.0762H101.583ZM114.628 57.0762V55.5275C116.144 54.986 117.237 53.5481 117.237 51.8455C117.237 49.6822 115.482 47.9224 113.324 47.9224C112.605 47.9224 112.019 47.3362 112.019 46.6147C112.019 45.8932 112.605 45.307 113.324 45.307C114.043 45.307 114.628 45.8932 114.628 46.6147H117.237C117.237 44.9121 116.144 43.4741 114.628 42.9327V41.3839H125.065V57.0762H114.628ZM130.283 57.0762H127.674V41.3839H130.283V57.0762Z" fill="#FCC015"/>
<path id="Vector_23" d="M150.682 29.1386C150.128 29.6939 149.645 30.293 149.225 30.9226H152.599C156.165 27.4236 161.904 27.4428 165.441 30.9877L167.286 29.1386C162.709 24.5489 155.26 24.5489 150.682 29.1386Z" fill="#FCC015"/>
<path id="Vector_24" d="M152.599 43.9997H149.225C149.645 44.6293 150.128 45.2284 150.682 45.7837C152.971 48.0786 155.978 49.2254 158.984 49.2254C161.991 49.2254 164.997 48.0786 167.286 45.7837L165.441 43.9346C161.904 47.4795 156.165 47.4986 152.599 43.9997Z" fill="#FCC015"/>
<path id="Vector_25" d="M160.287 38.7686H143.328V41.3839H160.287V38.7686Z" fill="#FCC015"/>
<path id="Vector_26" d="M93.7556 33.5381H91.1465V36.1535H160.287V33.5381H93.7556Z" fill="#FCC015"/>
<path id="Vector_27" d="M184.928 47.923L184.058 45.3076H174.35L173.48 47.923H184.928Z" fill="#FCC015"/>
<path id="Vector_28" d="M173.48 74.0762L174.35 76.6916H184.058L184.928 74.0762H173.48Z" fill="#FCC015"/>
<path id="Vector_29" d="M184.421 60.9993H180.508V55.7686H177.898V63.6147H184.421V60.9993Z" fill="#FCC015"/>
<path id="Vector_30" d="M168.768 54.4612V67.5381C168.768 69.7014 170.523 71.4612 172.681 71.4612H185.727C187.885 71.4612 189.64 69.7014 189.64 67.5381V54.4612C189.64 52.2978 187.885 50.5381 185.727 50.5381H172.681C170.523 50.5381 168.768 52.2978 168.768 54.4612ZM171.377 54.4612C171.377 53.7396 171.962 53.1535 172.681 53.1535H185.727C186.446 53.1535 187.031 53.7396 187.031 54.4612V67.5381C187.031 68.2596 186.446 68.8458 185.727 68.8458H172.681C171.962 68.8458 171.377 68.2596 171.377 67.5381V54.4612Z" fill="#1434CB"/>
<path id="Vector_31" d="M203.99 96.9615H218.34C221.217 96.9615 223.558 94.6155 223.558 91.7307V59.0384C223.558 56.1536 221.217 53.8076 218.34 53.8076H203.99C201.112 53.8076 198.771 56.1536 198.771 59.0384V91.7307C198.771 94.6155 201.112 96.9615 203.99 96.9615ZM203.99 56.423H218.34C219.779 56.423 220.949 57.5966 220.949 59.0384V87.8076H201.381V59.0384C201.381 57.5966 202.551 56.423 203.99 56.423ZM218.34 94.3461H203.99C202.551 94.3461 201.381 93.1725 201.381 91.7307V90.423H220.949V91.7307C220.949 93.1725 219.779 94.3461 218.34 94.3461Z" fill="#FCC015"/>
<path id="Vector_32" d="M216.114 73.8057L209.209 80.7272L206.218 77.7287L204.373 79.5779L209.209 84.4256L217.959 75.6548L216.114 73.8057Z" fill="#1434CB"/>
<path id="Vector_33" d="M32.4418 11.9609C24.5292 11.9609 18.0918 18.4138 18.0918 26.3456C18.0918 34.2773 24.5292 40.7302 32.4418 40.7302C40.3544 40.7302 46.7918 34.2773 46.7918 26.3456C46.7918 18.4138 40.3544 11.9609 32.4418 11.9609ZM32.4418 38.1148C25.9681 38.1148 20.7009 32.8355 20.7009 26.3456C20.7009 19.8556 25.9681 14.5763 32.4418 14.5763C38.9155 14.5763 44.1827 19.8556 44.1827 26.3456C44.1827 32.8355 38.9155 38.1148 32.4418 38.1148Z" fill="#FCC015"/>
<path id="Vector_34" d="M41.8639 44.9429C36.2693 50.5517 36.2693 59.6774 41.8639 65.2862C44.6616 68.0906 48.3364 69.4928 52.0111 69.4928C55.6859 69.4928 59.3607 68.0906 62.1583 65.2862C67.7529 59.6774 67.7529 50.5517 62.1583 44.9429C56.563 39.3341 47.4592 39.3341 41.8639 44.9429ZM59.3368 45.9221L55.071 50.1983C52.785 48.0487 50.3955 46.3041 48.2459 45.2264C47.7133 44.9595 47.2303 44.7587 46.7726 44.5904C50.7925 42.5842 55.7241 43.0254 59.3368 45.9221ZM60.3136 63.437C60.1129 63.635 59.0294 63.7091 56.9433 62.6632C55.0306 61.7044 52.8809 60.1325 50.797 58.1807L55.0701 53.8974C57.0173 55.9858 58.5853 58.1408 59.5415 60.058C60.5849 62.1498 60.5123 63.2378 60.3136 63.437ZM43.7086 46.7921C43.7762 46.7244 43.945 46.672 44.2195 46.672C44.7565 46.672 45.6986 46.8738 47.0789 47.5659C48.9916 48.5247 51.1413 50.0966 53.2252 52.0484L48.9522 56.3317C47.0049 54.2433 45.437 52.0883 44.4807 50.1711C43.4373 48.0793 43.5099 46.9913 43.7086 46.7921ZM41.5128 49.8637C41.6807 50.3225 41.8811 50.8069 42.1474 51.3409C43.2218 53.495 44.9622 55.8904 47.1065 58.1819L42.8408 62.4579C39.9515 58.8362 39.5117 53.8932 41.5128 49.8637ZM44.6854 64.307L48.9513 60.0309C51.2373 62.1804 53.6267 63.925 55.7763 65.0027C56.3107 65.2706 56.793 65.4688 57.252 65.6374C53.2316 67.6455 48.2992 67.2051 44.6854 64.307ZM62.5094 60.3654C62.3415 59.9067 62.1412 59.4222 61.8748 58.8882C60.8004 56.7342 59.06 54.3388 56.9158 52.0473L61.1814 47.7712C64.0707 51.3929 64.5105 56.3359 62.5094 60.3654Z" fill="#FCC015"/>
<path id="Vector_35" d="M201.444 151.703L197.037 142.868C196.593 141.977 195.698 141.422 194.703 141.422H189.719C189.12 141.422 188.599 141.015 188.454 140.433L186.149 131.189L183.513 130.53C183.113 130.43 182.791 130.155 182.629 129.774C182.467 129.395 182.492 128.971 182.697 128.612L186.378 122.154V118.538C186.378 115.883 187.026 113.382 188.151 111.164C189.832 118.013 195.993 123.115 203.337 123.115H205.946C207.385 123.115 208.555 124.288 208.555 125.73C208.555 127.172 207.385 128.345 205.946 128.345V130.961C208.823 130.961 211.164 128.615 211.164 125.73C211.164 122.845 208.823 120.499 205.946 120.499H203.337C196.309 120.499 190.577 114.896 190.316 107.914C193.309 104.418 197.739 102.192 202.685 102.192C211.829 102.192 218.992 109.085 218.992 117.884V119.192H220.296C223.892 119.192 226.819 122.125 226.819 125.73C226.819 129.335 223.892 132.268 220.296 132.268V133.576V134.884C225.331 134.884 229.428 130.777 229.428 125.73C229.428 121.112 226 117.282 221.561 116.664C220.932 106.988 212.868 99.5762 202.685 99.5762C192.255 99.5762 183.769 108.083 183.769 118.538V121.46L180.432 127.315C179.818 128.39 179.744 129.661 180.23 130.801C180.715 131.94 181.681 132.767 182.88 133.067L183.997 133.348L185.922 141.067C186.359 142.816 187.921 144.038 189.719 144.038H194.703L199.256 153.165L201.444 151.703Z" fill="#1434CB"/>
<path id="Vector_36" d="M238.956 132.923L231.791 128.134C231.604 129.033 231.305 129.888 230.926 130.7L234.253 132.923L173.334 173.634V169.538C173.334 169.474 173.343 169.399 173.344 169.333C173.456 163.93 178.054 153.371 178.101 153.264L178.153 153.125C179.401 149.08 177.157 144.7 173.151 143.362L166.379 141.099C165.904 140.939 165.558 140.515 165.497 140.018L164.005 127.872C163.86 126.686 163.189 125.652 162.166 125.037C161.012 124.34 159.608 124.3 158.413 124.922C157.217 125.546 156.446 126.722 156.35 128.069L155.004 146.965C152.553 144.508 148.964 143.4 145.635 144.064L144.007 144.391C143.003 144.591 142.242 145.329 142.022 146.317C141.798 147.326 142.2 148.384 143.052 149.015L148.287 152.87L153.994 158.875C155.456 160.341 155.675 162.498 155.675 163.654V168.885H156.979H158.284V163.654C158.284 160.961 157.416 158.607 155.861 157.049L150.097 150.983L144.519 146.955L146.147 146.628C148.628 146.133 151.317 146.968 153.158 148.815C153.889 149.546 154.946 149.78 155.915 149.416C156.885 149.053 157.532 148.186 157.606 147.152L158.953 128.255C158.997 127.63 159.432 127.339 159.616 127.243C159.801 127.146 160.288 126.957 160.824 127.28C161.153 127.478 161.369 127.81 161.415 128.192L162.907 140.338C163.091 141.83 164.13 143.102 165.554 143.579L172.325 145.842C174.975 146.728 176.468 149.608 175.681 152.284C175.222 153.341 170.835 163.588 170.734 169.333H170.725V178.52L172.753 177.165L238.956 132.923Z" fill="#FCC015"/>
<path id="Vector_37" d="M35.6332 22.6423L33.7478 23.9027V17.8457H31.1387V28.7887L37.0805 24.8184L35.6332 22.6423Z" fill="#1434CB"/>
</g>
</svg>
